# xmcd
#
# Track frame offsets:
#   150
#   16516
#   32545
#   46971
#   67571
#   88154
#   103568
#   119507
#   134272
#   148973
#   162214
#   176857
#   190258
#   205485
#   221158
#   234629
#   246043
#   264330
#   275727
#   289646
#
# Disc length: 4057 seconds
#
# Revision: 0
# Processed by: cddbd v1.5PL3 Copyright (c) Steve Scherf et al.
# Submitted via: uFREEDB ActiveX Control 1.5
#
DISCID=270fd714
DTITLE=Vários - Bailão Bom D+ 3
DYEAR=1900
DGENRE=UnClassifiable
TTITLE0=Banda Herança - Quero você
TTITLE1=MDO - Fom fom fom
TTITLE2=Gílson e Jr - Eutrepocemia
TTITLE3=Patrícia e Adriana - Tudo o que vivo
TTITLE4=Brenno Reis e Marco Viola - Nóis é jeca mais nóis 
TTITLE5=Pé kum pé - Quebradeira
TTITLE6=Airo e Ruan - Do Brasil à Argentina
TTITLE7=Henrique e Eduardo - Pra lá de Bagdá
TTITLE8=João Lucas e Gabriel - Onça Pintada
TTITLE9=Tradição - Do jeito que a gente gosta
TTITLE10=Jáffar Sáter - Senhorita
TTITLE11=Clave de Sol - Bela Criatura
TTITLE12=Celestiales - Um mês de saudades
TTITLE13=Chalana de Prata - Sou assim mesmo
TTITLE14=Voz Pantaneira - Botando pra quebrar
TTITLE15=O garrafão - dodói de amor
TTITLE16=Silvana e Camila Hanna - Se não for por amor
TTITLE17=Balancera - Cafuné
TTITLE18=Bailanta - cachaça e bailão
TTITLE19=Márcio e Marcelo - Porto Seguro
EXTD=
EXTT0=
EXTT1=
EXTT2=
EXTT3=
EXTT4=
EXTT5=
EXTT6=
EXTT7=
EXTT8=
EXTT9=
EXTT10=
EXTT11=
EXTT12=
EXTT13=
EXTT14=
EXTT15=
EXTT16=
EXTT17=
EXTT18=
EXTT19=
PLAYORDER=
